<?xml version="1.0" standalone="no"?><!DOCTYPE svg PUBLIC "-//W3C//DTD SVG 1.1//EN" "http://www.w3.org/Graphics/SVG/1.1/DTD/svg11.dtd"><svg t="1565789798740" class="icon" viewBox="0 0 1024 1024" version="1.1" xmlns="http://www.w3.org/2000/svg" p-id="9065" xmlns:xlink="http://www.w3.org/1999/xlink" width="200" height="200"><defs><style type="text/css"></style></defs><path d="M234.170543 55.565891v71.441861H154.790698c-19.844961 0-39.689922 11.906977-51.5969 23.813953-15.875969 15.875969-23.813953 35.72093-23.813953 55.565892v662.821705c0 23.813953 7.937984 43.658915 23.813953 55.565892 11.906977 15.875969 31.751938 23.813953 51.5969 23.813953h714.418604c19.844961 0 39.689922-7.937984 55.565892-23.813953 15.875969-11.906977 23.813953-31.751938 23.813953-55.565892V206.387597c0-19.844961-7.937984-39.689922-23.813953-55.565892-15.875969-11.906977-35.72093-23.813953-55.565892-23.813953h-75.410852V55.565891h75.410852c83.348837 0 150.821705 67.472868 150.821706 150.821706v662.821705c0 87.317829-67.472868 154.790698-150.821706 154.790698H154.790698c-83.348837 0-150.821705-67.472868-150.821706-154.790698V206.387597c0-83.348837 67.472868-150.821705 150.821706-150.821706h79.379845z" p-id="9066" fill="#d81e06"></path><path d="M289.736434 35.72093c0-19.844961 19.844961-35.72093 39.689923-35.72093s35.72093 15.875969 35.72093 35.72093v119.069768c0 23.813953-15.875969 39.689922-35.72093 39.689922s-39.689922-15.875969-39.689923-39.689922V35.72093z m369.116279 0c0-19.844961 15.875969-35.72093 39.689923-35.72093 19.844961 0 35.72093 15.875969 35.72093 35.72093v119.069768c0 23.813953-15.875969 39.689922-35.72093 39.689922-23.813953 0-39.689922-15.875969-39.689923-39.689922V35.72093z m-234.170542 95.255814V55.565891h174.635658v75.410853h-174.635658z m59.534883 476.27907l238.139535-281.79845 55.565892 47.627907-289.736434 341.333334-198.449613-190.511628 51.596899-51.596899 142.883721 134.945736z" p-id="9067" fill="#d81e06"></path></svg>