<?xml version="1.0" standalone="no"?><!DOCTYPE svg PUBLIC "-//W3C//DTD SVG 1.1//EN" "http://www.w3.org/Graphics/SVG/1.1/DTD/svg11.dtd"><svg t="1565790221945" class="icon" viewBox="0 0 1024 1024" version="1.1" xmlns="http://www.w3.org/2000/svg" p-id="11461" xmlns:xlink="http://www.w3.org/1999/xlink" width="200" height="200"><defs><style type="text/css"></style></defs><path d="M532.31746 818.285714c4.063492 0 8.634921-0.507937 12.698413-1.015873 41.650794-5.079365 77.206349-35.555556 89.904762-77.714285 1.015873-3.047619-0.507937-6.603175-3.555556-8.126985-3.047619-1.52381-6.095238 0-8.126984 2.539683 0 0.507937-16.761905 28.444444-81.269841 37.079365-9.650794 1.52381-18.793651 2.031746-27.936508 2.031746-45.206349 0-65.52381-17.777778-65.523809-17.777778-2.031746-2.031746-5.587302-2.031746-8.126985 0s-3.047619 5.587302-1.523809 8.126984c20.825397 34.539683 56.380952 54.857143 93.460317 54.857143" p-id="11462" fill="#d81e06"></path><path d="M846.222222 382.984127c-50.793651-141.714286-181.84127-242.793651-336.253968-242.793651-153.904762 0-284.444444 100.063492-335.746032 240.761905-2.539683-3.047619-5.587302-6.095238-8.63492-8.634921 28.952381-171.174603 171.68254-301.714286 344.380952-301.714285 171.68254 0 313.904762 129.015873 343.873016 299.174603-3.047619 4.571429-5.587302 8.634921-7.619048 13.206349m71.619048-46.222222h-2.031746C872.634921 143.746032 707.555556 0 509.968254 0 306.793651 0 138.15873 151.873016 100.571429 352.507937c-36.571429 6.603175-64 39.619048-64 79.746031v159.492064c0 44.698413 34.539683 81.269841 77.714285 81.269841 24.380952 0 45.714286-11.68254 59.936508-29.968254 34.539683 93.968254 104.126984 169.142857 193.015873 209.269841 0-0.507937 2.031746-4.063492 4.063492-6.603174 1.52381-2.031746 3.047619-3.555556 4.063492-3.555556 1.52381 0 2.539683 0.507937 3.555556 1.52381-20.31746-15.746032-94.47619-96.507937-110.730159-209.777778-7.111111-49.777778 28.952381-98.539683 71.111111-106.666667 67.555556-13.206349 134.603175-27.936508 202.15873-40.63492 42.666667-8.126984 72.126984-32.507937 89.904762-72.634921 4.063492-9.650794 10.15873-28.444444 13.20635-55.873016 0.507937-4.063492 4.063492-7.111111 8.126984-7.111111 2.539683 0 5.079365 1.52381 6.603174 3.555556l2.031746-1.015873c26.412698 39.619048 79.238095 128 86.857143 220.95238 8.634921 106.15873 4.063492 179.301587-75.174603 253.460318l-0.507936 0.507936c-1.015873 1.015873-1.52381 3.047619-1.52381 4.571429 0 2.539683 1.015873 4.063492 3.047619 5.587302 0.507937 0.507937 1.52381 0.507937 2.031746 1.015873 0.507937 0 1.015873 0.507937 1.52381 0.507936 0.507937 0 1.015873 0 1.523809-0.507936 1.015873-0.507937 2.031746-1.52381 3.047619-2.031746 79.746032-45.206349 140.698413-120.888889 169.142857-212.317461 11.68254 17.777778 29.460317 29.968254 50.285715 34.539683-33.52381 156.444444-168.634921 254.47619-336.761905 269.714286-10.15873-25.904762-35.047619-44.190476-64-44.190477-38.095238 0-68.571429 30.984127-68.571429 69.079365s30.984127 69.079365 68.571429 69.079365c30.47619 0 56.380952-20.31746 65.015873-48.253968 194.031746-16.253968 349.968254-135.619048 382.47619-320.507936 28.952381-12.190476 48.761905-41.650794 48.761905-75.174603V418.539683c0.507937-45.206349-35.047619-81.777778-79.238095-81.777778" p-id="11463" fill="#d81e06"></path><path d="M565.84127 757.333333" p-id="11464" fill="#d81e06"></path></svg>