<?xml version="1.0" standalone="no"?><!DOCTYPE svg PUBLIC "-//W3C//DTD SVG 1.1//EN" "http://www.w3.org/Graphics/SVG/1.1/DTD/svg11.dtd"><svg t="1565789495369" class="icon" viewBox="0 0 1024 1024" version="1.1" xmlns="http://www.w3.org/2000/svg" p-id="7451" xmlns:xlink="http://www.w3.org/1999/xlink" width="200" height="200"><defs><style type="text/css"></style></defs><path d="M996.364102 182.597818c-19.083636-10.565818-44.218182-7.447273-63.348364 4.980364l-151.133091 114.036363c-5.306182 5.026909-13.870545 5.026909-21.783272 5.02691-7.912727-2.513455-13.870545-4.980364-19.130182-13.079273L564.701556 26.158545A63.069091 63.069091 0 0 0 515.270284 0c-21.783273 0-38.306909 10.612364-49.524364 26.158545L300.695738 291.048727c-2.606545 7.447273-11.170909 10.612364-19.130182 13.079273a29.649455 29.649455 0 0 1-25.088-4.980364l-165.003636-119.621818c-19.130182-13.125818-44.218182-15.592727-63.348364-2.513454-19.130182 10.565818-30.394182 31.185455-27.741091 54.830545l91.089455 553.425455c2.653091 28.718545 27.741091 46.778182 54.784 46.778181h737.28c27.694545 0 52.130909-18.059636 52.130909-44.218181l87.784727-550.353455c3.258182-21.224727-7.912727-44.869818-27.089454-54.877091z m-286.440727 229.981091c-7.261091 0-13.870545 5.585455-19.130182 16.849455l-113.570909 236.823272c-5.911273 12.474182-9.867636 21.178182-12.520728 25.6a24.017455 24.017455 0 0 0-3.956363 9.914182c0 3.118545 4.654545 4.980364 13.870545 6.888727v13.032728H457.135011v-13.032728c2.653091-1.256727 5.259636-1.861818 7.261091-3.118545 2.653091-1.256727 3.258182-3.118545 3.258182-5.585455 0-2.513455-1.954909-6.283636-5.259637-11.86909a322.373818 322.373818 0 0 1-11.869091-21.829819L333.044829 426.914909a21.317818 21.317818 0 0 0-7.912727-9.960727 16.384 16.384 0 0 0-9.914182-3.723637v-13.125818h109.568v13.125818c-5.911273 0-9.216 3.118545-9.216 9.309091 0 3.118545 1.303273 8.145455 3.956364 14.336 2.606545 6.237091 5.911273 13.125818 9.867636 19.968l89.134545 182.597819 84.48-177.012364c5.911273-11.822545 9.914182-20.526545 13.172364-26.158546 3.304727-5.585455 4.654545-10.612364 4.002909-13.684363-0.698182-5.632-4.654545-8.750545-11.915636-8.750546V400.756364h101.655273v11.822545z m229.003636 486.772364l76.613818 93.463272c11.170909 13.125818 2.606545 31.185455-13.870545 31.185455H28.125556c-16.523636 0-27.741091-18.059636-16.523636-31.185455l77.265455-93.463272c2.606545-4.980364 11.170909-7.447273 16.47709-7.447273h817.105455c5.306182 0 11.217455 2.466909 16.523636 7.447273z" p-id="7452" fill="#d81e06"></path></svg>