<?xml version="1.0" standalone="no"?><!DOCTYPE svg PUBLIC "-//W3C//DTD SVG 1.1//EN" "http://www.w3.org/Graphics/SVG/1.1/DTD/svg11.dtd"><svg t="1565789914838" class="icon" viewBox="0 0 1024 1024" version="1.1" xmlns="http://www.w3.org/2000/svg" p-id="9588" xmlns:xlink="http://www.w3.org/1999/xlink" width="200" height="200"><defs><style type="text/css"></style></defs><path d="M128.4 256.5c1.9-71.1 56.6-125.8 127.7-127.7 41.1-1.1 41.2-64.9 0-63.8-106.3 2.9-188.6 85.3-191.5 191.5-1.1 41.2 62.7 41.1 63.8 0z m638.4-127.6c71.1 1.9 125.8 56.6 127.7 127.7 1.1 41.1 64.9 41.2 63.8 0C955.4 150.3 873.1 67.9 766.8 65c-41.2-1.1-41.1 62.8 0 63.9z" p-id="9589" fill="#d81e06"></path><path d="M862.6 522.5c-3.7 194.1-157 347.4-351.1 351.1-194.1 3.7-347.6-162.5-351.1-351.1-3.7-194.1 162.4-347.5 351.1-351.1 194.1-3.6 347.5 162.5 351.1 351.1 0.8 41.1 64.6 41.2 63.8 0-4.3-229.1-185.8-410.6-414.9-414.9-229.1-4.3-410.8 192.3-414.9 414.9-4.3 229.1 192.3 410.7 414.9 414.9 229.1 4.3 410.7-192.3 414.9-414.9 0.8-41.2-63.1-41.1-63.8 0z" p-id="9590" fill="#d81e06"></path><path d="M254.8 808.5L159 904.3c-29.1 29.1 16 74.3 45.1 45.1l95.8-95.8c29.2-29.1-15.9-74.2-45.1-45.1zM724 853.7l95.8 95.8c29.1 29.1 74.3-16 45.1-45.1l-95.8-95.8c-29.1-29.2-74.2 15.9-45.1 45.1z" p-id="9591" fill="#d81e06"></path><path d="M640.4 595.7l-97.1-97.1c-21.2-21.2 0.1 28.4 0.1 3V299.1c0-41.2-63.8-41.2-63.8 0v206.8c0 27.1 23.6 42.8 41.3 60.5l74.4 74.4c29.1 29.2 74.3-15.9 45.1-45.1z" p-id="9592" fill="#d81e06"></path></svg>