<?xml version="1.0" standalone="no"?><!DOCTYPE svg PUBLIC "-//W3C//DTD SVG 1.1//EN" "http://www.w3.org/Graphics/SVG/1.1/DTD/svg11.dtd"><svg t="1565790179896" class="icon" viewBox="0 0 1024 1024" version="1.1" xmlns="http://www.w3.org/2000/svg" p-id="10648" xmlns:xlink="http://www.w3.org/1999/xlink" width="200" height="200"><defs><style type="text/css"></style></defs><path d="M512 0a512 512 0 1 0 512 512A512.6144 512.6144 0 0 0 512 0z m0 967.1168A455.1168 455.1168 0 1 1 967.1168 512 455.68 455.68 0 0 1 512 967.1168z" p-id="10649" fill="#d81e06"></path><path d="M755.3024 488.3456L413.952 260.8128a28.4672 28.4672 0 0 0-44.2368 23.6544v455.1168a28.4672 28.4672 0 0 0 44.2368 23.6544l341.3504-227.5328a28.4672 28.4672 0 0 0 0-47.3088z m-328.704 198.0928V337.7152l261.632 174.4384z" p-id="10650" fill="#d81e06"></path></svg>