<?xml version="1.0" standalone="no"?><!DOCTYPE svg PUBLIC "-//W3C//DTD SVG 1.1//EN" "http://www.w3.org/Graphics/SVG/1.1/DTD/svg11.dtd"><svg t="1565789241805" class="icon" viewBox="0 0 1024 1024" version="1.1" xmlns="http://www.w3.org/2000/svg" p-id="5396" data-spm-anchor-id="a313x.7781069.0.i3" xmlns:xlink="http://www.w3.org/1999/xlink" width="200" height="200"><defs><style type="text/css"></style></defs><path d="M256.80384 438.23616V387.03104c17.52576-0.36352 30.53568-2.02752 39.02464-4.98176 7.56736-2.58048 13.37856-6.272 17.43872-11.07456 4.79744-5.71904 10.4192-15.1296 16.88576-28.23168 11.25376-23.06048 21.67296-39.12192 31.27296-48.15872 12.91264-11.99104 31.27296-17.99168 55.08608-17.99168h184.33024c27.48928 0 48.90112 6.46144 64.20992 19.37408 5.71904 5.16608 10.89024 12.0832 15.49824 20.75648l16.89088 33.21344c8.85248 17.16224 18.82112 27.77088 29.89056 31.83104 7.00928 2.76992 20.3008 4.52096 39.8592 5.25312v51.20512a289.23904 289.23904 0 0 1-31.0016-2.21184c3.31776 6.64064 4.98176 14.57664 4.98176 23.80288v88.85248c0 19.7376-4.52096 34.23232-13.55776 43.44832-8.48384 8.48896-22.06208 12.73856-40.68352 12.73856h-349.0304v76.3904c0 9.77408 6.64064 14.66368 19.93216 14.66368h53.1456v51.2h-77.7728c-13.47072 0-24.7296-4.52096-33.7664-13.55264-9.05216-9.04704-13.56288-21.41696-13.56288-37.08928V456.22784c0-6.08768 1.47456-12.82048 4.4288-20.20352-10.71616 1.10592-21.87776 1.8432-33.50016 2.21184z m81.09568 47.61088h352.06656V471.4496c0-2.76992-1.00864-5.3504-3.04128-7.75168-3.69152-4.05504-8.58112-6.08768-14.6688-6.08768H361.42592c-15.68256 0-23.5264 4.61312-23.5264 13.83936v14.39744z m0 71.12704H672.256c11.81184 0 17.71008-4.98176 17.71008-14.94016v-13.01504H337.89952v27.9552z m10.79808-146.9696h141.15328v-36.25984h51.75808v36.25984h133.67808c-8.12032-8.85248-17.9968-25.46688-29.60896-49.8176-6.46144-13.65504-13.37856-22.4256-20.7616-26.30144-6.8352-3.50208-16.4352-5.25312-28.78976-5.25312h-164.4032c-20.3008 0-34.04288 3.69152-41.2416 11.06944-3.31776 3.5072-9.41568 15.04256-18.26816 34.60096-5.34528 11.80672-13.18912 23.71072-23.51616 35.70176z m156.65664 206.47936h61.44512l8.85248 14.9504h166.07232v39.84896H605.5424c21.41184 16.9728 47.15008 25.472 77.23008 25.472h59.50976v50.65216h-59.50976c-47.43168 0-84.23936-10.3424-110.43328-31.0016-19.01568-14.7712-41.33888-48.07168-66.98496-99.92192z" p-id="5397" fill="#d81e06"></path><path d="M512 32C246.912 32 32 246.912 32 512s214.912 480 480 480c165.51424 0 311.3984-83.82976 397.69088-211.3024-2.17088-3.05152-5.68832-8.04352-5.68832-8.38144 0-0.48128-1.60256-21.60128-1.60256-21.60128l3.80416-5.76h-49.5104c-74.78272 110.44352-201.25696 183.04-344.69376 183.04-229.76 0-416-186.24-416-416S282.24 96 512 96s416 186.24 416 416c0 4.29568-0.19456 8.54016-0.32256 12.8h64.1536c0.10752-4.25472 0.16896-8.51968 0.16896-12.8 0-265.088-214.912-480-480-480z" p-id="5398" fill="#d81e06"></path><path d="M883.41504 762.67008m-32 0a32 32 0 1 0 64 0 32 32 0 1 0-64 0Z" p-id="5399" fill="#d81e06"></path><path d="M959.84128 526.16704m-32 0a32 32 0 1 0 64 0 32 32 0 1 0-64 0Z" p-id="5400" fill="#d81e06"></path><path d="M945.92 608.08704m-32 0a32 32 0 1 0 64 0 32 32 0 1 0-64 0Z" p-id="5401" fill="#d81e06"></path></svg>