<?xml version="1.0" standalone="no"?><!DOCTYPE svg PUBLIC "-//W3C//DTD SVG 1.1//EN" "http://www.w3.org/Graphics/SVG/1.1/DTD/svg11.dtd"><svg t="1565788981481" class="icon" viewBox="0 0 1024 1024" version="1.1" xmlns="http://www.w3.org/2000/svg" p-id="614" xmlns:xlink="http://www.w3.org/1999/xlink" width="200" height="200"><defs><style type="text/css"></style></defs><path d="M366.4833 466.294029l-57.533344 0 0 57.404408-49.298799 0 0-57.404408-57.549717 0 0-49.203632 57.549717 0 0-57.420781 49.298799 0 0 57.420781 57.533344 0L366.4833 466.294029 366.4833 466.294029zM530.899954 523.698436 465.113645 523.698436c-9.866718 0-16.432251-6.566556-16.432251-16.401552 0-9.833973 6.566556-16.401552 16.432251-16.401552l65.786309 0c9.867742 0 16.435321 6.567579 16.435321 16.401552C547.335275 517.131881 540.784068 523.698436 530.899954 523.698436L530.899954 523.698436zM713.367729 385.921513c4.931313-18.035772 22.99983-27.886117 39.463804-22.968108 18.068518 4.932336 27.934213 22.968108 23.000853 39.369659-4.931313 18.051121-23.000853 27.885094-39.433104 22.969131C718.300065 422.007383 708.449719 403.957285 713.367729 385.921513L713.367729 385.921513zM655.832338 472.861608c-18.082844-4.933359-27.949562-22.968108-23.016203-39.369659 4.933359-16.401552 23.016203-27.885094 39.452547-22.967084 18.066471 4.916986 27.948539 22.967084 22.99983 39.368636C692.015422 467.928249 673.916205 477.779617 655.832338 472.861608L655.832338 472.861608zM742.949464 530.266016c-4.931313 18.035772-22.99983 27.886117-39.433104 22.952758-16.449647-4.91801-27.949562-22.952758-23.016203-39.35431 4.932336-18.051121 23.016203-27.885094 39.450501-22.968108C736.399281 495.813343 747.8818 512.213871 742.949464 530.266016L742.949464 530.266016zM823.514361 484.328777c-4.948709 18.051121-23.016203 27.885094-39.450501 22.969131-18.082844-4.91801-27.935236-22.969131-23.000853-39.369659 4.932336-18.034748 23.000853-27.885094 39.433104-22.951735C816.933479 448.25928 828.432371 466.294029 823.514361 484.328777L823.514361 484.328777z" p-id="615" fill="#d81e06"></path><path d="M960.865589 485.418598c-23.472598-87.557148-46.122457-146.033981-73.443709-189.606359-34.062793-54.325279-77.582983-88.215134-133.032876-103.59338-18.08796-5.433756-33.777291-7.753591-52.397371-7.753591-32.334429 0-58.357106 8.939603-81.317027 16.827247-2.922563 1.003863-5.833869 2.003634-8.745175 2.980891-0.147356 0.049119-0.291642 0.099261-0.437975 0.151449l-2.379187 0.844228c-26.750247 9.500375-54.409191 19.324114-96.586802 19.324114-42.219567 0-69.854974-9.81146-96.580662-19.299555l-2.453888-0.870834c-0.144286-0.051165-0.288572-0.101307-0.433882-0.149403-3.039219-1.020236-6.078439-2.065032-9.126868-3.112897-22.753213-7.825222-48.542576-16.694217-79.276554-16.694217-19.459191 0-36.734646 2.571568-52.780087 7.860015-55.480592 15.484669-99.06218 49.318242-133.218094 103.414301-28.121478 44.538379-50.608631 103.096053-72.904427 189.845813-22.765493 85.685521-31.493272 161.606655-25.240871 219.560578 8.738012 80.988546 44.475957 113.300462 73.194022 126.130675 12.671601 6.228865 27.325345 9.257851 44.769646 9.257851 68.235081 0 122.918517-59.558467 166.856215-107.417475 2.572592-2.801812 5.116531-5.572926 7.632841-8.296967 0.179079-0.193405 0.355087-0.391926 0.529049-0.590448l11.7056-13.450337c27.509541-31.81459 90.669022-50.807153 169.002089-50.807153 73.206302 0 121.850186 11.364839 153.690358 36.380582 10.126638 2.88777 21.469987 0.376577 29.480428-7.566326 9.013281-8.939603 11.178597-22.166859 6.487761-33.175587-41.827641-34.30941-101.802594-49.873897-189.658548-49.873897-46.000684 0-87.332021 5.697769-122.897028 16.938788-38.002522 12.009522-67.317175 29.717835-87.073124 52.565193l-11.386328 13.080923c-2.461051 2.666736-4.948709 5.378497-7.463995 8.117888-38.671765 42.120306-82.503039 89.859587-126.905318 89.859587-8.958022 0-16.042371-1.279133-21.055548-3.800559-0.426719-0.214894-0.860601-0.418532-1.298576-0.610914-28.437679-12.465916-38.365796-51.777247-41.686425-82.560344-5.548366-51.426253 2.668783-120.558773 23.763217-199.921285 0.019443-0.072655 0.037862-0.146333 0.057305-0.216941 41.977044-163.370835 87.708598-232.42149 168.738076-254.773568 0.473791-0.130983 0.944512-0.274246 1.411139-0.430812 10.747785-3.604084 22.267143-5.28333 36.252669-5.28333 21.668509 0 41.083697 6.677073 61.637826 13.746072 3.103688 1.067308 6.198166 2.131547 9.292644 3.171226l2.215458 0.785899c28.141944 9.991562 63.165622 22.425755 114.725928 22.425755 51.523467 0 86.574774-12.449543 114.737184-22.451338l2.149966-0.763386c2.957355-0.99363 5.912663-2.00875 8.883321-3.027963 20.786419-7.140631 40.417525-13.885242 63.695694-13.885242 13.288654 0 24.019043 1.602498 37.036521 5.533017 0.206708 0.063445 0.415462 0.122797 0.62524 0.181125 90.723258 25.025976 130.6015 112.467491 168.80766 254.989485 21.043269 79.196737 29.328979 148.365072 23.958668 200.029756-3.200902 30.804586-12.81384 70.130244-40.433898 82.563414-0.349971 0.156566-0.695848 0.321318-1.038656 0.493234-5.033643 2.527566-12.130272 3.808746-21.089317 3.808746-23.222911 0-46.591131-12.570293-69.208245-31.0379-10.304693-3.219321-22.002107-0.780783-30.198789 7.352455-8.830109 8.758478-11.095709 21.6286-6.774287 32.497135 1.705851 1.421372 3.422959 2.822278 5.152347 4.199649 34.817993 27.738761 67.864644 41.224914 101.028974 41.224914 17.494443 0 32.18912-3.048429 44.901653-9.31618 28.141944-12.863982 63.189158-45.209668 71.605851-126.179794C992.410026 646.893246 983.598336 570.970066 960.865589 485.418598z" p-id="616" fill="#d81e06"></path></svg>