<?xml version="1.0" standalone="no"?><!DOCTYPE svg PUBLIC "-//W3C//DTD SVG 1.1//EN" "http://www.w3.org/Graphics/SVG/1.1/DTD/svg11.dtd"><svg t="1565714463859" class="icon" viewBox="0 0 1024 1024" version="1.1" xmlns="http://www.w3.org/2000/svg" p-id="4881" xmlns:xlink="http://www.w3.org/1999/xlink" width="200" height="200"><defs><style type="text/css"></style></defs><path d="M984.22 567.56a27.76 27.76 0 0 0-27.78 27.78v305.55a55.63 55.63 0 0 1-55.56 55.56H123.11a55.63 55.63 0 0 1-55.56-55.56V123.11a55.63 55.63 0 0 1 55.56-55.56h305.56a27.78 27.78 0 0 0 0-55.56H123.11A111.22 111.22 0 0 0 12 123.11v777.78A111.22 111.22 0 0 0 123.11 1012h777.78A111.22 111.22 0 0 0 1012 900.89V595.33a27.76 27.76 0 0 0-27.78-27.77z" p-id="4882" fill="#e6e6e6"></path><path d="M409 615a27.77 27.77 0 0 0 39.28 0l555.58-555.58a27.77 27.77 0 0 0-39.28-39.28L409 575.69a27.77 27.77 0 0 0 0 39.31z" p-id="4883" fill="#e6e6e6"></path></svg>